<svg xmlns="http://www.w3.org/2000/svg" version="1.1" xmlns:xlink="http://www.w3.org/1999/xlink" xmlns:svgjs="http://svgjs.com/svgjs" width="1600" height="900" preserveAspectRatio="none" viewBox="0 0 1600 900"><g mask="url(&quot;#SvgjsMask1065&quot;)" fill="none"><rect width="1600" height="900" x="0" y="0" fill="rgba(3, 17, 31, 0.98)"></rect><path d="M785.4 987.31C946.35 930.86 934.62 501.97 1211.07 454.15 1487.52 406.33 1519.47 260.92 1636.74 256.15" stroke="rgba(33, 93, 155, 0.58)" stroke-width="2"></path><path d="M761.76 974.38C910.89 961.21 952.28 695.71 1267.35 653.43 1582.41 611.15 1606.58 234.39 1772.93 203.43" stroke="rgba(33, 93, 155, 0.58)" stroke-width="2"></path><path d="M776.06 1024.27C894.65 975.28 844.16 609.96 1076.58 608.22 1309 606.48 1520.11 795.01 1677.61 797.22" stroke="rgba(33, 93, 155, 0.58)" stroke-width="2"></path><path d="M320.11 1038.8C456.49 1029.83 555.27 771.47 796.72 770.96 1038.17 770.45 1035.02 883.46 1273.33 883.46 1511.63 883.46 1627.52 771.72 1749.94 770.96" stroke="rgba(33, 93, 155, 0.58)" stroke-width="2"></path><path d="M300.3 1046.07C505.84 1028.81 612.17 628.08 1001.05 610.55 1389.93 593.02 1516.41 370.97 1701.8 367.55" stroke="rgba(33, 93, 155, 0.58)" stroke-width="2"></path></g><defs><mask id="SvgjsMask1065"><rect width="1600" height="900" fill="#ffffff"></rect></mask></defs></svg>