<svg id="visual" viewBox="0 0 1600 900" width="1600" height="900" xmlns="http://www.w3.org/2000/svg" xmlns:xlink="http://www.w3.org/1999/xlink" version="1.1"><rect x="0" y="0" width="1600" height="900" fill="#FFF7E9"></rect><defs><linearGradient id="grad1_0" x1="43.8%" y1="0%" x2="100%" y2="100%"><stop offset="14.444444444444446%" stop-color="#fff7e9" stop-opacity="1"></stop><stop offset="85.55555555555554%" stop-color="#fff7e9" stop-opacity="1"></stop></linearGradient></defs><defs><linearGradient id="grad2_0" x1="0%" y1="0%" x2="56.3%" y2="100%"><stop offset="14.444444444444446%" stop-color="#fff7e9" stop-opacity="1"></stop><stop offset="85.55555555555554%" stop-color="#fff7e9" stop-opacity="1"></stop></linearGradient></defs><g transform="translate(1600, 0)"><path d="M0 810C-85.5 738.7 -171.1 667.3 -259.1 625.5C-347.1 583.6 -437.5 571.2 -526.1 526.1C-614.7 481 -701.3 403.1 -748.3 310C-795.3 216.8 -802.7 108.4 -810 0L0 0Z" fill="#1746A2"></path></g><g transform="translate(0, 900)"><path d="M0 -810C106 -794.2 212 -778.4 305.4 -737.3C398.8 -696.1 479.5 -629.6 556.5 -556.5C633.5 -483.4 706.7 -403.8 748.3 -310C790 -216.1 800 -108.1 810 0L0 0Z" fill="#1746A2"></path></g></svg>