<svg xmlns="http://www.w3.org/2000/svg" version="1.1" xmlns:xlink="http://www.w3.org/1999/xlink" xmlns:svgjs="http://svgjs.com/svgjs" width="1600" height="900" preserveAspectRatio="none" viewBox="0 0 1600 900"><g mask="url(&quot;#SvgjsMask1114&quot;)" fill="none"><rect width="1600" height="900" x="0" y="0" fill="rgba(8, 20, 34, 1)"></rect><path d="M724 336L431 629" stroke-width="10" stroke="url(#SvgjsLinearGradient1115)" stroke-linecap="round" class="BottomLeft"></path><path d="M1269 361L1634 -4" stroke-width="10" stroke="url(#SvgjsLinearGradient1115)" stroke-linecap="round" class="BottomLeft"></path><path d="M150 378L495 33" stroke-width="10" stroke="url(#SvgjsLinearGradient1116)" stroke-linecap="round" class="TopRight"></path><path d="M596 676L265 1007" stroke-width="8" stroke="url(#SvgjsLinearGradient1115)" stroke-linecap="round" class="BottomLeft"></path><path d="M1103 180L707 576" stroke-width="6" stroke="url(#SvgjsLinearGradient1115)" stroke-linecap="round" class="BottomLeft"></path><path d="M899 27L375 551" stroke-width="10" stroke="url(#SvgjsLinearGradient1115)" stroke-linecap="round" class="BottomLeft"></path><path d="M569 830L98 1301" stroke-width="6" stroke="url(#SvgjsLinearGradient1116)" stroke-linecap="round" class="TopRight"></path><path d="M842 439L1284 -3" stroke-width="6" stroke="url(#SvgjsLinearGradient1115)" stroke-linecap="round" class="BottomLeft"></path><path d="M1451 593L2073 -29" stroke-width="10" stroke="url(#SvgjsLinearGradient1115)" stroke-linecap="round" class="BottomLeft"></path><path d="M1022 69L766 325" stroke-width="8" stroke="url(#SvgjsLinearGradient1116)" stroke-linecap="round" class="TopRight"></path><path d="M671 825L1269 227" stroke-width="10" stroke="url(#SvgjsLinearGradient1116)" stroke-linecap="round" class="TopRight"></path><path d="M1469 216L1822 -137" stroke-width="10" stroke="url(#SvgjsLinearGradient1116)" stroke-linecap="round" class="TopRight"></path><path d="M336 784L647 473" stroke-width="6" stroke="url(#SvgjsLinearGradient1115)" stroke-linecap="round" class="BottomLeft"></path><path d="M1040 258L656 642" stroke-width="10" stroke="url(#SvgjsLinearGradient1115)" stroke-linecap="round" class="BottomLeft"></path><path d="M1168 795L1469 494" stroke-width="6" stroke="url(#SvgjsLinearGradient1115)" stroke-linecap="round" class="BottomLeft"></path><path d="M988 491L1432 47" stroke-width="10" stroke="url(#SvgjsLinearGradient1116)" stroke-linecap="round" class="TopRight"></path><path d="M330 807L-161 1298" stroke-width="8" stroke="url(#SvgjsLinearGradient1116)" stroke-linecap="round" class="TopRight"></path><path d="M1523 735L1040 1218" stroke-width="10" stroke="url(#SvgjsLinearGradient1115)" stroke-linecap="round" class="BottomLeft"></path><path d="M1142 533L1578 97" stroke-width="10" stroke="url(#SvgjsLinearGradient1115)" stroke-linecap="round" class="BottomLeft"></path><path d="M1275 655L1577 353" stroke-width="10" stroke="url(#SvgjsLinearGradient1116)" stroke-linecap="round" class="TopRight"></path><path d="M1048 323L652 719" stroke-width="6" stroke="url(#SvgjsLinearGradient1116)" stroke-linecap="round" class="TopRight"></path><path d="M274 476L696 54" stroke-width="6" stroke="url(#SvgjsLinearGradient1115)" stroke-linecap="round" class="BottomLeft"></path><path d="M210 652L-267 1129" stroke-width="8" stroke="url(#SvgjsLinearGradient1115)" stroke-linecap="round" class="BottomLeft"></path><path d="M1011 612L782 841" stroke-width="6" stroke="url(#SvgjsLinearGradient1116)" stroke-linecap="round" class="TopRight"></path><path d="M1006 567L1590 -17" stroke-width="10" stroke="url(#SvgjsLinearGradient1116)" stroke-linecap="round" class="TopRight"></path><path d="M1544 805L1940 409" stroke-width="10" stroke="url(#SvgjsLinearGradient1115)" stroke-linecap="round" class="BottomLeft"></path><path d="M710 238L37 911" stroke-width="8" stroke="url(#SvgjsLinearGradient1115)" stroke-linecap="round" class="BottomLeft"></path><path d="M739 659L1344 54" stroke-width="10" stroke="url(#SvgjsLinearGradient1115)" stroke-linecap="round" class="BottomLeft"></path><path d="M715 29L1226 -482" stroke-width="8" stroke="url(#SvgjsLinearGradient1116)" stroke-linecap="round" class="TopRight"></path><path d="M150 270L785 -365" stroke-width="6" stroke="url(#SvgjsLinearGradient1116)" stroke-linecap="round" class="TopRight"></path><path d="M920 845L420 1345" stroke-width="8" stroke="url(#SvgjsLinearGradient1115)" stroke-linecap="round" class="BottomLeft"></path><path d="M149 670L464 355" stroke-width="8" stroke="url(#SvgjsLinearGradient1116)" stroke-linecap="round" class="TopRight"></path><path d="M1106 408L639 875" stroke-width="6" stroke="url(#SvgjsLinearGradient1115)" stroke-linecap="round" class="BottomLeft"></path><path d="M1234 843L645 1432" stroke-width="6" stroke="url(#SvgjsLinearGradient1115)" stroke-linecap="round" class="BottomLeft"></path><path d="M389 665L713 341" stroke-width="6" stroke="url(#SvgjsLinearGradient1116)" stroke-linecap="round" class="TopRight"></path><path d="M1353 372L1909 -184" stroke-width="10" stroke="url(#SvgjsLinearGradient1115)" stroke-linecap="round" class="BottomLeft"></path><path d="M1430 195L1000 625" stroke-width="10" stroke="url(#SvgjsLinearGradient1116)" stroke-linecap="round" class="TopRight"></path><path d="M856 447L218 1085" stroke-width="10" stroke="url(#SvgjsLinearGradient1115)" stroke-linecap="round" class="BottomLeft"></path><path d="M451 188L-93 732" stroke-width="10" stroke="url(#SvgjsLinearGradient1116)" stroke-linecap="round" class="TopRight"></path><path d="M644 880L4 1520" stroke-width="6" stroke="url(#SvgjsLinearGradient1116)" stroke-linecap="round" class="TopRight"></path><path d="M185 5L-400 590" stroke-width="6" stroke="url(#SvgjsLinearGradient1115)" stroke-linecap="round" class="BottomLeft"></path><path d="M890 783L240 1433" stroke-width="10" stroke="url(#SvgjsLinearGradient1116)" stroke-linecap="round" class="TopRight"></path><path d="M48 372L652 -232" stroke-width="6" stroke="url(#SvgjsLinearGradient1116)" stroke-linecap="round" class="TopRight"></path><path d="M482 878L110 1250" stroke-width="8" stroke="url(#SvgjsLinearGradient1116)" stroke-linecap="round" class="TopRight"></path><path d="M576 440L1132 -116" stroke-width="6" stroke="url(#SvgjsLinearGradient1115)" stroke-linecap="round" class="BottomLeft"></path><path d="M335 312L922 -275" stroke-width="10" stroke="url(#SvgjsLinearGradient1116)" stroke-linecap="round" class="TopRight"></path></g><defs><mask id="SvgjsMask1114"><rect width="1600" height="900" fill="#ffffff"></rect></mask><linearGradient x1="100%" y1="0%" x2="0%" y2="100%" id="SvgjsLinearGradient1115"><stop stop-color="rgba(12, 35, 60, 0)" offset="0"></stop><stop stop-color="rgba(12, 35, 60, 1)" offset="1"></stop></linearGradient><linearGradient x1="0%" y1="100%" x2="100%" y2="0%" id="SvgjsLinearGradient1116"><stop stop-color="rgba(12, 35, 60, 0)" offset="0"></stop><stop stop-color="rgba(12, 35, 60, 1)" offset="1"></stop></linearGradient></defs></svg>