<svg id="visual" viewBox="0 0 1600 900" width="1600" height="900" xmlns="http://www.w3.org/2000/svg" xmlns:xlink="http://www.w3.org/1999/xlink" version="1.1"><rect x="0" y="0" width="1600" height="900" fill="#ffffff"></rect><path d="M0 609L38.2 610.8C76.3 612.7 152.7 616.3 228.8 623.3C305 630.3 381 640.7 457.2 636.8C533.3 633 609.7 615 685.8 596.5C762 578 838 559 914.2 556.7C990.3 554.3 1066.7 568.7 1142.8 583.8C1219 599 1295 615 1371.2 612.2C1447.3 609.3 1523.7 587.7 1561.8 576.8L1600 566L1600 901L1561.8 901C1523.7 901 1447.3 901 1371.2 901C1295 901 1219 901 1142.8 901C1066.7 901 990.3 901 914.2 901C838 901 762 901 685.8 901C609.7 901 533.3 901 457.2 901C381 901 305 901 228.8 901C152.7 901 76.3 901 38.2 901L0 901Z" fill="#d7edf8"></path><path d="M0 592L38.2 596.2C76.3 600.3 152.7 608.7 228.8 615.7C305 622.7 381 628.3 457.2 638.7C533.3 649 609.7 664 685.8 673.7C762 683.3 838 687.7 914.2 679.5C990.3 671.3 1066.7 650.7 1142.8 642.7C1219 634.7 1295 639.3 1371.2 637.7C1447.3 636 1523.7 628 1561.8 624L1600 620L1600 901L1561.8 901C1523.7 901 1447.3 901 1371.2 901C1295 901 1219 901 1142.8 901C1066.7 901 990.3 901 914.2 901C838 901 762 901 685.8 901C609.7 901 533.3 901 457.2 901C381 901 305 901 228.8 901C152.7 901 76.3 901 38.2 901L0 901Z" fill="#cbe6f3"></path><path d="M0 684L38.2 691.2C76.3 698.3 152.7 712.7 228.8 712.2C305 711.7 381 696.3 457.2 690.5C533.3 684.7 609.7 688.3 685.8 690C762 691.7 838 691.3 914.2 702.7C990.3 714 1066.7 737 1142.8 733.8C1219 730.7 1295 701.3 1371.2 694.3C1447.3 687.3 1523.7 702.7 1561.8 710.3L1600 718L1600 901L1561.8 901C1523.7 901 1447.3 901 1371.2 901C1295 901 1219 901 1142.8 901C1066.7 901 990.3 901 914.2 901C838 901 762 901 685.8 901C609.7 901 533.3 901 457.2 901C381 901 305 901 228.8 901C152.7 901 76.3 901 38.2 901L0 901Z" fill="#bfdfef"></path><path d="M0 815L38.2 802.8C76.3 790.7 152.7 766.3 228.8 755.3C305 744.3 381 746.7 457.2 746C533.3 745.3 609.7 741.7 685.8 741.8C762 742 838 746 914.2 749C990.3 752 1066.7 754 1142.8 759.5C1219 765 1295 774 1371.2 777.2C1447.3 780.3 1523.7 777.7 1561.8 776.3L1600 775L1600 901L1561.8 901C1523.7 901 1447.3 901 1371.2 901C1295 901 1219 901 1142.8 901C1066.7 901 990.3 901 914.2 901C838 901 762 901 685.8 901C609.7 901 533.3 901 457.2 901C381 901 305 901 228.8 901C152.7 901 76.3 901 38.2 901L0 901Z" fill="#b3d8ea"></path><path d="M0 806L38.2 812.3C76.3 818.7 152.7 831.3 228.8 833.8C305 836.3 381 828.7 457.2 827.7C533.3 826.7 609.7 832.3 685.8 827C762 821.7 838 805.3 914.2 801.2C990.3 797 1066.7 805 1142.8 813.8C1219 822.7 1295 832.3 1371.2 832.2C1447.3 832 1523.7 822 1561.8 817L1600 812L1600 901L1561.8 901C1523.7 901 1447.3 901 1371.2 901C1295 901 1219 901 1142.8 901C1066.7 901 990.3 901 914.2 901C838 901 762 901 685.8 901C609.7 901 533.3 901 457.2 901C381 901 305 901 228.8 901C152.7 901 76.3 901 38.2 901L0 901Z" fill="#a6d1e6"></path></svg>