<svg id="visual" viewBox="0 0 1600 900" width="1600" height="900" xmlns="http://www.w3.org/2000/svg" xmlns:xlink="http://www.w3.org/1999/xlink" version="1.1"><rect x="0" y="0" width="1600" height="900" fill="#749F82"></rect><path d="M0 533L229 560L457 514L686 569L914 531L1143 607L1371 605L1600 563L1600 901L1371 901L1143 901L914 901L686 901L457 901L229 901L0 901Z" fill="#87c072"></path><path d="M0 618L229 564L457 619L686 618L914 571L1143 658L1371 576L1600 568L1600 901L1371 901L1143 901L914 901L686 901L457 901L229 901L0 901Z" fill="#98cf79"></path><path d="M0 727L229 671L457 726L686 679L914 627L1143 715L1371 713L1600 680L1600 901L1371 901L1143 901L914 901L686 901L457 901L229 901L0 901Z" fill="#a9df80"></path><path d="M0 789L229 769L457 776L686 769L914 772L1143 741L1371 743L1600 730L1600 901L1371 901L1143 901L914 901L686 901L457 901L229 901L0 901Z" fill="#bcef87"></path><path d="M0 778L229 779L457 797L686 844L914 806L1143 790L1371 790L1600 801L1600 901L1371 901L1143 901L914 901L686 901L457 901L229 901L0 901Z" fill="#cfff8d"></path></svg>