<svg id="visual" viewBox="0 0 1000 562.5" width="1000" height="562.5" xmlns="http://www.w3.org/2000/svg" xmlns:xlink="http://www.w3.org/1999/xlink" version="1.1"><rect x="0" y="0" width="1000" height="562.5" fill="#FFFFFF"></rect><path d="M0 313L23.8 305.3C47.7 297.7 95.3 282.3 143 269C190.7 255.7 238.3 244.3 286 249.2C333.7 254 381.3 275 428.8 283.7C476.3 292.3 523.7 288.7 571.2 292C618.7 295.3 666.3 305.7 714 306.5C761.7 307.3 809.3 298.7 857 288C904.7 277.3 952.3 264.7 976.2 258.3L1000 252L1000 564L976.2 564C952.3 564 904.7 564 857 564C809.3 564 761.7 564 714 564C666.3 564 618.7 564 571.2 564C523.7 564 476.3 564 428.8 564C381.3 564 333.7 564 286 564C238.3 564 190.7 564 143 564C95.3 564 47.7 564 23.8 564L0 564Z" fill="#ffffff"></path><path d="M0 254L23.8 257.8C47.7 261.7 95.3 269.3 143 283.8C190.7 298.3 238.3 319.7 286 319C333.7 318.3 381.3 295.7 428.8 286.8C476.3 278 523.7 283 571.2 285C618.7 287 666.3 286 714 295.3C761.7 304.7 809.3 324.3 857 327C904.7 329.7 952.3 315.3 976.2 308.2L1000 301L1000 564L976.2 564C952.3 564 904.7 564 857 564C809.3 564 761.7 564 714 564C666.3 564 618.7 564 571.2 564C523.7 564 476.3 564 428.8 564C381.3 564 333.7 564 286 564C238.3 564 190.7 564 143 564C95.3 564 47.7 564 23.8 564L0 564Z" fill="#e9f3f9"></path><path d="M0 365L23.8 360.3C47.7 355.7 95.3 346.3 143 341.5C190.7 336.7 238.3 336.3 286 335.2C333.7 334 381.3 332 428.8 332C476.3 332 523.7 334 571.2 340.2C618.7 346.3 666.3 356.7 714 359.7C761.7 362.7 809.3 358.3 857 361.3C904.7 364.3 952.3 374.7 976.2 379.8L1000 385L1000 564L976.2 564C952.3 564 904.7 564 857 564C809.3 564 761.7 564 714 564C666.3 564 618.7 564 571.2 564C523.7 564 476.3 564 428.8 564C381.3 564 333.7 564 286 564C238.3 564 190.7 564 143 564C95.3 564 47.7 564 23.8 564L0 564Z" fill="#d3e8f3"></path><path d="M0 406L23.8 407.8C47.7 409.7 95.3 413.3 143 425C190.7 436.7 238.3 456.3 286 463.3C333.7 470.3 381.3 464.7 428.8 457.5C476.3 450.3 523.7 441.7 571.2 434C618.7 426.3 666.3 419.7 714 420.2C761.7 420.7 809.3 428.3 857 433C904.7 437.7 952.3 439.3 976.2 440.2L1000 441L1000 564L976.2 564C952.3 564 904.7 564 857 564C809.3 564 761.7 564 714 564C666.3 564 618.7 564 571.2 564C523.7 564 476.3 564 428.8 564C381.3 564 333.7 564 286 564C238.3 564 190.7 564 143 564C95.3 564 47.7 564 23.8 564L0 564Z" fill="#bddced"></path><path d="M0 483L23.8 487C47.7 491 95.3 499 143 502C190.7 505 238.3 503 286 494.8C333.7 486.7 381.3 472.3 428.8 466.5C476.3 460.7 523.7 463.3 571.2 471C618.7 478.7 666.3 491.3 714 493.7C761.7 496 809.3 488 857 485C904.7 482 952.3 484 976.2 485L1000 486L1000 564L976.2 564C952.3 564 904.7 564 857 564C809.3 564 761.7 564 714 564C666.3 564 618.7 564 571.2 564C523.7 564 476.3 564 428.8 564C381.3 564 333.7 564 286 564C238.3 564 190.7 564 143 564C95.3 564 47.7 564 23.8 564L0 564Z" fill="#a6d1e6"></path></svg>